<svg xmlns="http://www.w3.org/2000/svg" width="80.855" height="77" viewBox="0 0 80.855 77">
  <g id="impact-logo" transform="translate(-464.998 -168)">
    <g id="Group_34" data-name="Group 34">
      <path id="Union_1" data-name="Union 1" d="M-6902.451-601A11.568,11.568,0,0,1-6914-612.55v-53.9A11.564,11.564,0,0,1-6902.451-678h42.355a3.85,3.85,0,0,1,3.85,3.848,3.85,3.85,0,0,1-3.85,3.848h-42.355a3.854,3.854,0,0,0-3.848,3.854v53.9a3.848,3.848,0,0,0,3.848,3.848h53.9a3.855,3.855,0,0,0,3.855-3.848V-639.5a3.851,3.851,0,0,1,3.85-3.855A3.851,3.851,0,0,1-6837-639.5v26.949A11.563,11.563,0,0,1-6848.553-601Zm24.232-28.078-11.553-11.551a3.853,3.853,0,0,1,0-5.445,3.851,3.851,0,0,1,5.445,0l8.826,8.825,35.779-35.774a3.854,3.854,0,0,1,5.447,0,3.853,3.853,0,0,1,0,5.445l-38.5,38.5a3.861,3.861,0,0,1-2.725,1.129A3.841,3.841,0,0,1-6878.219-629.078Z" transform="translate(7379 846)" fill="#000"/>
    </g>
  </g>
</svg>
