<svg xmlns="http://www.w3.org/2000/svg" width="81.674" height="77" viewBox="0 0 81.674 77">
  <g id="hand-sustiain" transform="translate(-189.129 1376.111)">
    <g id="g10" transform="translate(189.129 -1376.111)">
      <path id="path14" d="M808.793-1376.111h0a38.242,38.242,0,0,1,5.5.357,1.248,1.248,0,0,1,1.036,1.036c.1.637,2.4,15.72-5.808,25.341-4.3,5.041-10.662,7.6-18.908,7.6a49.105,49.105,0,0,1-7.585-.634,1.248,1.248,0,0,1-1.039-1.039c-1.653-10.495-.062-18.657,4.728-24.261C792.649-1374.654,802-1376.111,808.793-1376.111Zm4.183,2.707a40.531,40.531,0,0,0-4.18-.211h0c-5.136,0-14.584.978-20.18,7.523-4.161,4.867-5.6,12.045-4.295,21.347a45.463,45.463,0,0,0,6.293.469c7.477,0,13.2-2.258,17-6.713C813.98-1358.443,813.32-1370.068,812.976-1373.4Z" transform="translate(-741.765 1376.111)" fill="#000"/>
      <path id="path16" d="M791.837-1203.934a1.244,1.244,0,0,1-.882-.365,1.248,1.248,0,0,1,0-1.765l21.3-21.3a1.248,1.248,0,0,1,1.765,0,1.248,1.248,0,0,1,0,1.765l-21.3,21.3A1.244,1.244,0,0,1,791.837-1203.934Z" transform="translate(-750.381 1237.646)" fill="#000"/>
      <path id="path18" d="M311.8-1376.111c6.8,0,16.146,1.457,22.079,8.4,4.79,5.6,6.381,13.766,4.728,24.26a1.248,1.248,0,0,1-1.039,1.039,49.1,49.1,0,0,1-7.585.634c-8.246,0-14.607-2.556-18.908-7.6-8.206-9.62-5.91-24.7-5.809-25.341a1.248,1.248,0,0,1,1.036-1.036A38.2,38.2,0,0,1,311.8-1376.111Zm24.477,31.366c1.309-9.3-.134-16.479-4.294-21.346-5.6-6.546-15.047-7.524-20.182-7.524a40.5,40.5,0,0,0-4.18.211c-.344,3.336-1,14.961,5.362,22.415,3.8,4.454,9.524,6.713,17,6.713A45.464,45.464,0,0,0,336.281-1344.745Z" transform="translate(-297.161 1376.111)" fill="#000"/>
      <path id="path20" d="M493.349-1186.635a1.244,1.244,0,0,1-.882-.365l-20.057-20.057a1.248,1.248,0,0,1,0-1.765,1.248,1.248,0,0,1,1.765,0l20.057,20.057a1.248,1.248,0,0,1,0,1.765A1.244,1.244,0,0,1,493.349-1186.635Z" transform="translate(-453.131 1220.346)" fill="#000"/>
      <path id="path22" d="M742.775-898.313a1.248,1.248,0,0,1-.845-.33,1.248,1.248,0,0,1-.375-1.179,103.583,103.583,0,0,0,1.791-17.95,1.248,1.248,0,0,1,1.247-1.209h1.685a1.248,1.248,0,0,1,1.247,1.209,117.036,117.036,0,0,0,1.429,16.075,1.248,1.248,0,0,1-.656,1.323,36.523,36.523,0,0,1-5.164,2.006A1.247,1.247,0,0,1,742.775-898.313Zm2.66-11.763c-.289,3.684-.667,6.522-1.033,8.651.616-.224,1.3-.49,1.938-.775C745.964-904.541,745.662-907.173,745.435-910.076Z" transform="translate(-704.599 949.539)" fill="#000"/>
      <path id="path24" d="M233.511-772.841a36.3,36.3,0,0,1-18.843-5.053l-13.024-8.024-9.83-6.076a5.66,5.66,0,0,1-1.846-7.778,8.982,8.982,0,0,1,12.344-2.932l10.738,6.5a10.5,10.5,0,0,1,3.8-2.764,16.07,16.07,0,0,1,4.69-1c.754-.085,1.466-.166,2.116-.289,5.547-1.055,9.449-3.1,13.938-6.055.871-.64,13.464-9.66,23.748-3.914l8.817,4.886a1.248,1.248,0,0,1,.643,1.091v23.183a1.248,1.248,0,0,1-.426.939,1.248,1.248,0,0,1-.988.3,35.658,35.658,0,0,0-20.011,3.431A35.684,35.684,0,0,1,233.511-772.841Zm-35.9-28.7a6.474,6.474,0,0,0-5.522,3.076,3.162,3.162,0,0,0,1.032,4.345l9.83,6.076,13.022,8.023c9.251,5.7,22.507,6.278,32.236,1.406a37.58,37.58,0,0,1,20.095-3.859v-21.051l-8.178-4.531c-9.04-5.051-20.956,3.67-21.075,3.759l-.058.041c-4.626,3.048-8.925,5.309-14.872,6.441-.743.141-1.536.231-2.3.318a14.342,14.342,0,0,0-3.96.807,6.821,6.821,0,0,0-4.157,4.556,3.878,3.878,0,0,0,1.414,3.821c1.622,1.1,4.294.747,6.441.467l.359-.047a69.081,69.081,0,0,0,16.669-4.416l.21-.084a1.248,1.248,0,0,1,1.622.7,1.248,1.248,0,0,1-.7,1.622l-.151.06-.063.025a71.579,71.579,0,0,1-17.274,4.573l-.354.046c-2.429.316-5.756.75-8.16-.874a6.382,6.382,0,0,1-2.449-6.451,8.171,8.171,0,0,1,.457-1.394l-10.719-6.485A6.458,6.458,0,0,0,197.614-801.538Z" transform="translate(-189.129 849.841)" fill="#000"/>
      <path id="path26" d="M288.9-735.244a1.242,1.242,0,0,1-.63-.172l-12.673-7.43a5.563,5.563,0,0,0-4.241-.693,5.543,5.543,0,0,0-3.425,2.443l-.313.676a1.248,1.248,0,0,1-1.657.607,1.248,1.248,0,0,1-.607-1.657l.346-.746a1.241,1.241,0,0,1,.07-.13,8.024,8.024,0,0,1,5.01-3.622,8.024,8.024,0,0,1,6.1.982l12.65,7.416a1.248,1.248,0,0,1,.445,1.708A1.247,1.247,0,0,1,288.9-735.244Z" transform="translate(-260.153 788.299)" fill="#000"/>
      <path id="path28" d="M386.469-769.942a1.243,1.243,0,0,1-.633-.173l-14.505-8.559a5.624,5.624,0,0,0-7.191,1.111,1.248,1.248,0,0,1-1.759.14,1.248,1.248,0,0,1-.14-1.759,8.031,8.031,0,0,1,10.379-1.629l14.485,8.546a1.248,1.248,0,0,1,.441,1.709A1.247,1.247,0,0,1,386.469-769.942Z" transform="translate(-350.39 821.74)" fill="#000"/>
    </g>
  </g>
</svg>
